<svg xmlns="http://www.w3.org/2000/svg" width="1200" height="330" viewBox="0 0 1200 330">
<defs>
  <linearGradient id="bg" x1="0" y1="0" x2="1" y2="1">
    <stop offset="0%" stop-color="#0b132b"/>
    <stop offset="55%" stop-color="#1c2541"/>
    <stop offset="100%" stop-color="#243b55"/>
  </linearGradient>
</defs>
<rect width="100%" height="100%" rx="18" fill="url(#bg)"/>
<text x="28" y="40" font-size="24" font-family="Segoe UI, Arial, sans-serif" fill="#e6edf3" font-weight="700">Engineering Activity Heatmap</text>
<text x="28" y="62" font-size="12" font-family="Segoe UI, Arial, sans-serif" fill="#9fb3c8">Last 30 days • Score model: Push=3, PR/Issue=2, Other events=1</text>
<text x="1172" y="40" font-size="13" font-family="Segoe UI, Arial, sans-serif" fill="#9fb3c8" text-anchor="end">Total: 238   Active: 29/30   Peak: 93   Avg/day: 7.9</text>
<line x1="70" y1="96" x2="1170" y2="96" stroke="#8ba3bb" stroke-opacity="0.2"/>
<rect x="70" y="110" width="22" height="22" rx="6" fill="#66d9e8"/><rect x="98" y="110" width="22" height="22" rx="6" fill="#204a69"/><rect x="126" y="110" width="22" height="22" rx="6" fill="#204a69"/><rect x="154" y="110" width="22" height="22" rx="6" fill="#204a69"/><rect x="182" y="110" width="22" height="22" rx="6" fill="#204a69"/><rect x="210" y="110" width="22" height="22" rx="6" fill="#204a69"/><rect x="238" y="110" width="22" height="22" rx="6" fill="#204a69"/><rect x="266" y="110" width="22" height="22" rx="6" fill="#204a69"/><rect x="294" y="110" width="22" height="22" rx="6" fill="#204a69"/><rect x="322" y="110" width="22" height="22" rx="6" fill="#204a69"/><rect x="350" y="110" width="22" height="22" rx="6" fill="#204a69"/><rect x="378" y="110" width="22" height="22" rx="6" fill="#204a69"/><rect x="406" y="110" width="22" height="22" rx="6" fill="#204a69"/><rect x="434" y="110" width="22" height="22" rx="6" fill="#204a69"/><rect x="462" y="110" width="22" height="22" rx="6" fill="#204a69"/><rect x="490" y="110" width="22" height="22" rx="6" fill="#204a69"/><rect x="518" y="110" width="22" height="22" rx="6" fill="#204a69"/><rect x="546" y="110" width="22" height="22" rx="6" fill="#204a69"/><rect x="574" y="110" width="22" height="22" rx="6" fill="#204a69"/><rect x="602" y="110" width="22" height="22" rx="6" fill="#204a69"/><rect x="630" y="110" width="22" height="22" rx="6" fill="#204a69"/><rect x="658" y="110" width="22" height="22" rx="6" fill="#204a69"/><rect x="686" y="110" width="22" height="22" rx="6" fill="#204a69"/><rect x="714" y="110" width="22" height="22" rx="6" fill="#204a69"/><rect x="742" y="110" width="22" height="22" rx="6" fill="#204a69"/><rect x="770" y="110" width="22" height="22" rx="6" fill="#204a69"/><rect x="798" y="110" width="22" height="22" rx="6" fill="#204a69"/><rect x="826" y="110" width="22" height="22" rx="6" fill="#204a69"/><rect x="854" y="110" width="22" height="22" rx="6" fill="#204a69"/><rect x="882" y="110" width="22" height="22" rx="6" fill="#1a2740"/>
<text x="81.0" y="148" font-size="11" fill="#8faac3" text-anchor="middle">19 May</text><text x="221.0" y="148" font-size="11" fill="#8faac3" text-anchor="middle">24 May</text><text x="361.0" y="148" font-size="11" fill="#8faac3" text-anchor="middle">29 May</text><text x="501.0" y="148" font-size="11" fill="#8faac3" text-anchor="middle">03 Jun</text><text x="641.0" y="148" font-size="11" fill="#8faac3" text-anchor="middle">08 Jun</text><text x="781.0" y="148" font-size="11" fill="#8faac3" text-anchor="middle">13 Jun</text>
<text x="70" y="282" font-size="11" fill="#9fb3c8">Legend</text>
<rect x="880" y="282" width="16" height="16" rx="4" fill="#1a2740"/><text x="901" y="295" font-size="10" fill="#b9cbe0">0</text><rect x="938" y="282" width="16" height="16" rx="4" fill="#204a69"/><text x="959" y="295" font-size="10" fill="#b9cbe0">Low</text><rect x="996" y="282" width="16" height="16" rx="4" fill="#1f7a9a"/><text x="1017" y="295" font-size="10" fill="#b9cbe0">Medium</text><rect x="1054" y="282" width="16" height="16" rx="4" fill="#28a8b5"/><text x="1075" y="295" font-size="10" fill="#b9cbe0">High</text><rect x="1112" y="282" width="16" height="16" rx="4" fill="#66d9e8"/><text x="1133" y="295" font-size="10" fill="#b9cbe0">Peak</text>
</svg>