<svg xmlns="http://www.w3.org/2000/svg" width="1200" height="360" viewBox="0 0 1200 360">
<defs>
  <linearGradient id="bg" x1="0" y1="0" x2="1" y2="1">
    <stop offset="0%" stop-color="#0b132b"/>
    <stop offset="55%" stop-color="#1c2541"/>
    <stop offset="100%" stop-color="#243b55"/>
  </linearGradient>
  <linearGradient id="bar" x1="0" y1="0" x2="0" y2="1">
    <stop offset="0%" stop-color="#5bc0be"/>
    <stop offset="100%" stop-color="#0e75b6"/>
  </linearGradient>
  <linearGradient id="line" x1="0" y1="0" x2="1" y2="0">
    <stop offset="0%" stop-color="#7bdff2"/>
    <stop offset="100%" stop-color="#5bc0be"/>
  </linearGradient>
</defs>
<rect width="100%" height="100%" rx="18" fill="url(#bg)"/>
<text x="28" y="36" font-size="22" font-family="Segoe UI, Arial, sans-serif" fill="#e6edf3" font-weight="700">Engineering Activity Dashboard</text>
<text x="28" y="58" font-size="12" font-family="Segoe UI, Arial, sans-serif" fill="#9fb3c8">Period: Last 30 days • Scoring model: Push=3, PR/Issue=2, Others=1</text>
<text x="1172" y="36" font-size="13" font-family="Segoe UI, Arial, sans-serif" fill="#9fb3c8" text-anchor="end">Total Score: 233</text>
<text x="1172" y="56" font-size="13" font-family="Segoe UI, Arial, sans-serif" fill="#9fb3c8" text-anchor="end">Active Days: 3/30 • Peak: 120 • Daily Avg: 7.8</text>
<line x1="70.00" y1="305.00" x2="1170.00" y2="305.00" stroke="#8ba3bb" stroke-opacity="0.18" stroke-width="1"/><text x="60.00" y="309.00" font-size="10" fill="#87a0b8" text-anchor="end">0</text><line x1="70.00" y1="251.25" x2="1170.00" y2="251.25" stroke="#8ba3bb" stroke-opacity="0.18" stroke-width="1"/><text x="60.00" y="255.25" font-size="10" fill="#87a0b8" text-anchor="end">30</text><line x1="70.00" y1="197.50" x2="1170.00" y2="197.50" stroke="#8ba3bb" stroke-opacity="0.18" stroke-width="1"/><text x="60.00" y="201.50" font-size="10" fill="#87a0b8" text-anchor="end">60</text><line x1="70.00" y1="143.75" x2="1170.00" y2="143.75" stroke="#8ba3bb" stroke-opacity="0.18" stroke-width="1"/><text x="60.00" y="147.75" font-size="10" fill="#87a0b8" text-anchor="end">90</text><line x1="70.00" y1="90.00" x2="1170.00" y2="90.00" stroke="#8ba3bb" stroke-opacity="0.18" stroke-width="1"/><text x="60.00" y="94.00" font-size="10" fill="#87a0b8" text-anchor="end">120</text>
<line x1="70.00" y1="291.08" x2="1170.00" y2="291.08" stroke="#f4d35e" stroke-width="1.6" stroke-dasharray="5 4" opacity="0.9"/>
<path d="M 70.00,305.00 L 107.93,305.00 L 145.86,305.00 L 183.79,305.00 L 221.72,305.00 L 259.66,305.00 L 297.59,305.00 L 335.52,305.00 L 373.45,305.00 L 411.38,305.00 L 449.31,305.00 L 487.24,305.00 L 525.17,305.00 L 563.10,305.00 L 601.03,90.00 L 638.97,305.00 L 676.90,305.00 L 714.83,305.00 L 752.76,305.00 L 790.69,247.67 L 828.62,305.00 L 866.55,305.00 L 904.48,305.00 L 942.41,305.00 L 980.34,305.00 L 1018.28,305.00 L 1056.21,305.00 L 1094.14,305.00 L 1132.07,305.00 L 1170.00,159.88 L 1170.00,305.00 L 70.00,305.00 Z" fill="#5bc0be" opacity="0.12"/>
<rect x="63.00" y="305.00" width="14" height="0.00" rx="5" fill="url(#bar)" opacity="0.72"/><rect x="100.93" y="305.00" width="14" height="0.00" rx="5" fill="url(#bar)" opacity="0.72"/><rect x="138.86" y="305.00" width="14" height="0.00" rx="5" fill="url(#bar)" opacity="0.72"/><rect x="176.79" y="305.00" width="14" height="0.00" rx="5" fill="url(#bar)" opacity="0.72"/><rect x="214.72" y="305.00" width="14" height="0.00" rx="5" fill="url(#bar)" opacity="0.72"/><rect x="252.66" y="305.00" width="14" height="0.00" rx="5" fill="url(#bar)" opacity="0.72"/><rect x="290.59" y="305.00" width="14" height="0.00" rx="5" fill="url(#bar)" opacity="0.72"/><rect x="328.52" y="305.00" width="14" height="0.00" rx="5" fill="url(#bar)" opacity="0.72"/><rect x="366.45" y="305.00" width="14" height="0.00" rx="5" fill="url(#bar)" opacity="0.72"/><rect x="404.38" y="305.00" width="14" height="0.00" rx="5" fill="url(#bar)" opacity="0.72"/><rect x="442.31" y="305.00" width="14" height="0.00" rx="5" fill="url(#bar)" opacity="0.72"/><rect x="480.24" y="305.00" width="14" height="0.00" rx="5" fill="url(#bar)" opacity="0.72"/><rect x="518.17" y="305.00" width="14" height="0.00" rx="5" fill="url(#bar)" opacity="0.72"/><rect x="556.10" y="305.00" width="14" height="0.00" rx="5" fill="url(#bar)" opacity="0.72"/><rect x="594.03" y="90.00" width="14" height="215.00" rx="5" fill="url(#bar)" opacity="0.72"/><rect x="631.97" y="305.00" width="14" height="0.00" rx="5" fill="url(#bar)" opacity="0.72"/><rect x="669.90" y="305.00" width="14" height="0.00" rx="5" fill="url(#bar)" opacity="0.72"/><rect x="707.83" y="305.00" width="14" height="0.00" rx="5" fill="url(#bar)" opacity="0.72"/><rect x="745.76" y="305.00" width="14" height="0.00" rx="5" fill="url(#bar)" opacity="0.72"/><rect x="783.69" y="247.67" width="14" height="57.33" rx="5" fill="url(#bar)" opacity="0.72"/><rect x="821.62" y="305.00" width="14" height="0.00" rx="5" fill="url(#bar)" opacity="0.72"/><rect x="859.55" y="305.00" width="14" height="0.00" rx="5" fill="url(#bar)" opacity="0.72"/><rect x="897.48" y="305.00" width="14" height="0.00" rx="5" fill="url(#bar)" opacity="0.72"/><rect x="935.41" y="305.00" width="14" height="0.00" rx="5" fill="url(#bar)" opacity="0.72"/><rect x="973.34" y="305.00" width="14" height="0.00" rx="5" fill="url(#bar)" opacity="0.72"/><rect x="1011.28" y="305.00" width="14" height="0.00" rx="5" fill="url(#bar)" opacity="0.72"/><rect x="1049.21" y="305.00" width="14" height="0.00" rx="5" fill="url(#bar)" opacity="0.72"/><rect x="1087.14" y="305.00" width="14" height="0.00" rx="5" fill="url(#bar)" opacity="0.72"/><rect x="1125.07" y="305.00" width="14" height="0.00" rx="5" fill="url(#bar)" opacity="0.72"/><rect x="1163.00" y="159.88" width="14" height="145.12" rx="5" fill="url(#bar)" opacity="0.72"/>
<path d="M 70.00,305.00 L 107.93,305.00 L 145.86,305.00 L 183.79,305.00 L 221.72,305.00 L 259.66,305.00 L 297.59,305.00 L 335.52,305.00 L 373.45,305.00 L 411.38,305.00 L 449.31,305.00 L 487.24,305.00 L 525.17,305.00 L 563.10,305.00 L 601.03,90.00 L 638.97,305.00 L 676.90,305.00 L 714.83,305.00 L 752.76,305.00 L 790.69,247.67 L 828.62,305.00 L 866.55,305.00 L 904.48,305.00 L 942.41,305.00 L 980.34,305.00 L 1018.28,305.00 L 1056.21,305.00 L 1094.14,305.00 L 1132.07,305.00 L 1170.00,159.88" fill="none" stroke="url(#line)" stroke-width="3.5" stroke-linecap="round" stroke-linejoin="round"/>
<circle cx="601.03" cy="90.00" r="2.8" fill="#c1f6ff"/><circle cx="790.69" cy="247.67" r="2.8" fill="#c1f6ff"/><circle cx="1170.00" cy="159.88" r="2.8" fill="#c1f6ff"/>
<rect x="770" y="312" width="404" height="28" rx="8" fill="#0f1d36" fill-opacity="0.72"/>
<rect x="786" y="321" width="14" height="8" rx="3" fill="#2ea8c6"/>
<text x="806" y="328" font-size="10" fill="#c4d4e5">Daily bars (score/day)</text>
<line x1="914" y1="325" x2="934" y2="325" stroke="#7bdff2" stroke-width="3"/>
<text x="940" y="328" font-size="10" fill="#c4d4e5">Trend line</text>
<line x1="1002" y1="325" x2="1022" y2="325" stroke="#f4d35e" stroke-width="2" stroke-dasharray="5 4"/>
<text x="1028" y="328" font-size="10" fill="#c4d4e5">Avg</text>
<rect x="1062" y="321" width="14" height="8" rx="2" fill="#5bc0be" fill-opacity="0.35"/>
<text x="1082" y="328" font-size="10" fill="#c4d4e5">Area</text>
<text x="70.00" y="346" font-size="11" fill="#87a0b8" text-anchor="middle">20 Apr</text><text x="221.72" y="346" font-size="11" fill="#87a0b8" text-anchor="middle">24 Apr</text><text x="373.45" y="346" font-size="11" fill="#87a0b8" text-anchor="middle">28 Apr</text><text x="525.17" y="346" font-size="11" fill="#87a0b8" text-anchor="middle">02 May</text><text x="676.90" y="346" font-size="11" fill="#87a0b8" text-anchor="middle">06 May</text><text x="828.62" y="346" font-size="11" fill="#87a0b8" text-anchor="middle">10 May</text><text x="980.34" y="346" font-size="11" fill="#87a0b8" text-anchor="middle">14 May</text><text x="1132.07" y="346" font-size="11" fill="#87a0b8" text-anchor="middle">18 May</text>
<text x="70.00" y="82.00" font-size="11" fill="#87a0b8">Daily score</text>
</svg>